<?xml version="1.0" encoding="UTF-8" standalone="no"?>
<!-- Created with Inkscape (http://www.inkscape.org/) -->

<svg
   xmlns:dc="http://purl.org/dc/elements/1.1/"
   xmlns:cc="http://creativecommons.org/ns#"
   xmlns:rdf="http://www.w3.org/1999/02/22-rdf-syntax-ns#"
   xmlns:svg="http://www.w3.org/2000/svg"
   xmlns="http://www.w3.org/2000/svg"
   xmlns:sodipodi="http://sodipodi.sourceforge.net/DTD/sodipodi-0.dtd"
   xmlns:inkscape="http://www.inkscape.org/namespaces/inkscape"
   width="726.4425mm"
   height="304.72189mm"
   viewBox="0 0 2574.0089 1079.7232"
   id="svg2"
   version="1.1"
   inkscape:version="0.91 r13725"
   sodipodi:docname="decision_tree.svg"
   inkscape:export-filename="/home/will/signal/project/decision_tree.svg.png"
   inkscape:export-xdpi="90"
   inkscape:export-ydpi="90">
  <defs
     id="defs4" />
  <sodipodi:namedview
     id="base"
     pagecolor="#ffffff"
     bordercolor="#666666"
     borderopacity="1.0"
     inkscape:pageopacity="0.0"
     inkscape:pageshadow="2"
     inkscape:zoom="0.25"
     inkscape:cx="1125.5805"
     inkscape:cy="598.1897"
     inkscape:document-units="px"
     inkscape:current-layer="layer1"
     showgrid="true"
     inkscape:window-width="1871"
     inkscape:window-height="1056"
     inkscape:window-x="49"
     inkscape:window-y="24"
     inkscape:window-maximized="1"
     fit-margin-top="10"
     fit-margin-left="10"
     fit-margin-right="10"
     fit-margin-bottom="10">
    <inkscape:grid
       type="xygrid"
       id="grid4216"
       originx="1764.1476"
       originy="1.2901874" />
  </sodipodi:namedview>
  <metadata
     id="metadata7">
    <rdf:RDF>
      <cc:Work
         rdf:about="">
        <dc:format>image/svg+xml</dc:format>
        <dc:type
           rdf:resource="http://purl.org/dc/dcmitype/StillImage" />
        <dc:title></dc:title>
      </cc:Work>
    </rdf:RDF>
  </metadata>
  <g
     inkscape:label="Layer 1"
     inkscape:groupmode="layer"
     id="layer1"
     transform="translate(1764.1474,26.070784)">
    <text
       xml:space="preserve"
       style="font-style:normal;font-weight:normal;font-size:60px;line-height:125%;font-family:sans-serif;text-align:center;letter-spacing:0px;word-spacing:0px;text-anchor:middle;fill:#000000;fill-opacity:1;stroke:none;stroke-width:1px;stroke-linecap:butt;stroke-linejoin:miter;stroke-opacity:1"
       x="-497.12958"
       y="100.93363"
       id="text4145"
       sodipodi:linespacing="125%"><tspan
         sodipodi:role="line"
         id="tspan4147"
         x="-497.12958"
         y="100.93363">Does the word explosion</tspan><tspan
         sodipodi:role="line"
         x="-497.12958"
         y="175.93362"
         id="tspan4218">occur &gt;1 time?</tspan></text>
    <flowRoot
       xml:space="preserve"
       id="flowRoot4149"
       style="font-style:normal;font-weight:normal;font-size:40px;line-height:125%;font-family:sans-serif;letter-spacing:0px;word-spacing:0px;fill:#000000;fill-opacity:1;stroke:none;stroke-width:1px;stroke-linecap:butt;stroke-linejoin:miter;stroke-opacity:1"
       transform="translate(-671.42856,477.14286)"><flowRegion
         id="flowRegion4151"><rect
           id="rect4153"
           width="148.57143"
           height="80"
           x="-228.57143"
           y="-213.35208" /></flowRegion><flowPara
         id="flowPara4155"
         style="font-size:60px">Yes</flowPara></flowRoot>    <text
       xml:space="preserve"
       style="font-style:normal;font-weight:normal;font-size:60px;line-height:125%;font-family:sans-serif;letter-spacing:0px;word-spacing:0px;fill:#000000;fill-opacity:1;stroke:none;stroke-width:1px;stroke-linecap:butt;stroke-linejoin:miter;stroke-opacity:1"
       x="-194.28575"
       y="326.64792"
       id="text4157"
       sodipodi:linespacing="125%"><tspan
         sodipodi:role="line"
         id="tspan4159"
         x="-194.28575"
         y="326.64792">No</tspan></text>
    <text
       xml:space="preserve"
       style="font-style:normal;font-weight:normal;font-size:60px;line-height:125%;font-family:sans-serif;text-align:center;letter-spacing:0px;word-spacing:0px;text-anchor:middle;fill:#000000;fill-opacity:1;stroke:none;stroke-width:1px;stroke-linecap:butt;stroke-linejoin:miter;stroke-opacity:1"
       x="-1098.6307"
       y="495.21936"
       id="text4161"
       sodipodi:linespacing="125%"><tspan
         sodipodi:role="line"
         id="tspan4163"
         x="-1098.6307"
         y="495.21936">Does the word</tspan><tspan
         sodipodi:role="line"
         x="-1098.6307"
         y="570.21936"
         id="tspan4220">Cambrian occur?</tspan></text>
    <flowRoot
       transform="translate(-1109.0963,867.25688)"
       xml:space="preserve"
       id="flowRoot4149-3"
       style="font-style:normal;font-weight:normal;font-size:40px;line-height:125%;font-family:sans-serif;letter-spacing:0px;word-spacing:0px;fill:#000000;fill-opacity:1;stroke:none;stroke-width:1px;stroke-linecap:butt;stroke-linejoin:miter;stroke-opacity:1"><flowRegion
         id="flowRegion4151-6"><rect
           id="rect4153-7"
           width="148.57143"
           height="80"
           x="-228.57143"
           y="-213.35208" /></flowRegion><flowPara
         id="flowPara4155-5"
         style="font-size:60px">Yes</flowPara></flowRoot>    <text
       xml:space="preserve"
       style="font-style:normal;font-weight:normal;font-size:60px;line-height:125%;font-family:sans-serif;letter-spacing:0px;word-spacing:0px;fill:#000000;fill-opacity:1;stroke:none;stroke-width:1px;stroke-linecap:butt;stroke-linejoin:miter;stroke-opacity:1"
       x="-960.52484"
       y="716.76196"
       id="text4157-3"
       sodipodi:linespacing="125%"><tspan
         sodipodi:role="line"
         id="tspan4159-5"
         x="-960.52484"
         y="716.76196">No</tspan></text>
    <text
       xml:space="preserve"
       style="font-style:normal;font-weight:normal;font-size:60px;line-height:125%;font-family:sans-serif;text-align:center;letter-spacing:0px;word-spacing:0px;text-anchor:middle;fill:#000000;fill-opacity:1;stroke:none;stroke-width:1px;stroke-linecap:butt;stroke-linejoin:miter;stroke-opacity:1"
       x="152.83133"
       y="492.36221"
       id="text4222"
       sodipodi:linespacing="125%"><tspan
         sodipodi:role="line"
         id="tspan4224"
         x="152.83133"
         y="492.36221">Does the word punch</tspan><tspan
         sodipodi:role="line"
         x="152.83133"
         y="567.36218"
         id="tspan4226">occur &gt;2 times?</tspan></text>
    <text
       xml:space="preserve"
       style="font-style:normal;font-weight:normal;font-size:60px;line-height:125%;font-family:sans-serif;text-align:center;letter-spacing:0px;word-spacing:0px;text-anchor:middle;fill:#000000;fill-opacity:1;stroke:none;stroke-width:1px;stroke-linecap:butt;stroke-linejoin:miter;stroke-opacity:1"
       x="-872.19312"
       y="895.21936"
       id="text4228"
       sodipodi:linespacing="125%"><tspan
         sodipodi:role="line"
         id="tspan4230"
         x="-872.19312"
         y="895.21936">Probably an</tspan><tspan
         sodipodi:role="line"
         x="-872.19312"
         y="970.21936"
         id="tspan4232">action movie</tspan></text>
    <text
       xml:space="preserve"
       style="font-style:normal;font-weight:normal;font-size:60px;line-height:125%;font-family:sans-serif;text-align:center;letter-spacing:0px;word-spacing:0px;text-anchor:middle;fill:#000000;fill-opacity:1;stroke:none;stroke-width:1px;stroke-linecap:butt;stroke-linejoin:miter;stroke-opacity:1"
       x="-1477.9073"
       y="895.21936"
       id="text4228-3"
       sodipodi:linespacing="125%"><tspan
         sodipodi:role="line"
         id="tspan4230-6"
         x="-1477.9073"
         y="895.21936">Probably not an</tspan><tspan
         sodipodi:role="line"
         x="-1477.9073"
         y="970.21936"
         id="tspan4232-7">action movie</tspan></text>
    <g
       transform="translate(-657.14286,842.97921)"
       id="g3">
      <polygon
         style="fill:#fff466;stroke:#000000;stroke-width:4.375;stroke-miterlimit:7"
         points="60.356,48.289 44.052,30.703 44.239,56.352 9.122,43.383 34.458,67.625 18.771,76.062 37.552,82.461 10.606,98.633 44.231,96.242 45.177,121 59.88,98.805 71.356,111.414 75.896,100.906 94.771,114.234 92.083,99.344 127.083,116.406 102.09,91.312 125.551,77.836 100.442,73.93 123.771,52.727 89.176,58.445 98.286,32.141 78.997,46.953 76.435,10.906 "
         id="polygon5" />
      <polygon
         points="77.504,5.422 79.192,45.531 83.114,42.922 79.474,0 "
         id="polygon7" />
      <polygon
         points="127.715,50.609 101.786,73.914 106.301,75.297 131.215,50.367 "
         id="polygon9" />
      <polygon
         points="129.286,76.93 103.583,91.883 107.708,94.188 132.278,77.602 "
         id="polygon11" />
      <polygon
         points="140.301,124.32 107.388,89.016 105.926,93.492 133.293,120.695 "
         id="polygon13" />
      <polygon
         points="124.911,116.422 93.731,100.828 94.099,105.531 140.301,124.32 "
         id="polygon15" />
      <polygon
         points="98.918,120.508 97.981,103.234 92.06,99.867 96.528,116.844 "
         id="polygon17" />
      <polygon
         points="44.325,129.383 63.497,105.688 58.45,102.258 43.786,121.781 "
         id="polygon19" />
      <polygon
         points="0.997,102.5 44.083,101.195 44.06,96.789 7.224,99.125 "
         id="polygon21" />
      <polygon
         points="73.426,117.312 79.192,103.398 76.411,101.539 71.942,113.914 "
         id="polygon23" />
      <polygon
         points="70.692,111.992 59.95,100.75 57.13,102.922 73.426,117.312 "
         id="polygon25" />
      <polygon
         points="97.138,116.211 77.106,102.969 74.051,105.531 98.918,120.508 "
         id="polygon27" />
      <polygon
         points="100.872,28.445 90.458,58.812 95.083,57.891 103.388,26.477 "
         id="polygon29" />
    </g>
    <text
       xml:space="preserve"
       style="font-style:normal;font-weight:normal;font-size:60px;line-height:125%;font-family:sans-serif;text-align:center;letter-spacing:0px;word-spacing:0px;text-anchor:middle;fill:#000000;fill-opacity:1;stroke:none;stroke-width:1px;stroke-linecap:butt;stroke-linejoin:miter;stroke-opacity:1"
       x="-237.90738"
       y="892.36218"
       id="text4228-35"
       sodipodi:linespacing="125%"><tspan
         sodipodi:role="line"
         id="tspan4230-62"
         x="-237.90738"
         y="892.36218">Probably an</tspan><tspan
         sodipodi:role="line"
         x="-237.90738"
         y="967.36218"
         id="tspan4232-9">action movie</tspan></text>
    <path
       inkscape:connector-curvature="0"
       d="m 75.78736,890.89054 6.3384,35.61542 c 0.6036,3.39554 -1.811,6.03651 -9.2812,7.92292 l -31.0125,7.69655 c -2.641,2.9428 -3.471,10.86572 -1.2073,11.39392 0,0 25.2024,-2.33915 38.3318,-3.471 3.0937,-0.30182 7.8475,-4.75375 7.9984,-7.99837 l 1.66,-43.0856 z m -22.1841,42.78378 -8.9039,-44.59473 3.3201,-0.75457 9.583,43.31197 c 0.6036,2.64098 21.3541,-1.43367 20.8259,-4.30101 l -9.8848,-55.83773 c -0.5282,-2.9428 -6.7156,-14.11035 -8.9038,-13.80852 l -11.6958,1.81095 c -2.8673,0.45274 -3.6219,3.69737 -7.6211,4.45193 -3.5464,0.67911 -8.2247,-7.69655 -11.3939,-7.01744 l -11.6957,2.64097 c -3.2446,0.75456 -3.3956,7.99838 -6.942,8.97931 -3.6219,1.05639 -5.9611,-1.96187 -8.5266,-1.2073 l -9.1302,2.64097 c -3.6974,1.05639 -3.7728,9.58296 -7.3193,11.09209 -3.2446,1.35822 -6.0365,-0.98093 -8.4511,0.60365 l -7.4702,4.90467 c -1.7355,1.05639 -0.83,13.20487 0.076,15.54401 l 13.9594,38.9355 c 0.7546,2.11278 16.2986,-1.58458 15.7704,-3.6219 l -9.7339,-36.21907 3.3201,-0.75457 11.6958,43.01015 c 0.6036,2.33915 20.5996,-1.88641 20.0714,-4.22556 -3.2447,-14.56308 -9.6585,-43.6138 -9.6585,-43.6138 l 3.3201,-0.75456 10.3375,44.2929 c 0.6037,2.41461 25.6552,-2.71643 25.0516,-5.50831 z"
       id="path4672" />
    <path
       id="path5361"
       style="display:inline;fill:none;stroke:#000000;stroke-width:0.69465798px;stroke-linecap:butt;stroke-linejoin:miter;stroke-opacity:1"
       d="m -1170.2979,869.77354 c 0,0 0.1094,-0.94533 -1.4509,-0.8555 -1.5602,0.0898 -3.3312,4.31181 -4.0481,5.34483 -0.7168,1.03303 -1.8132,2.73979 -2.1506,2.7847 m -10.6793,-6.7839 c 0,0 1.0232,-2.19901 2.7941,-0.35752 1.771,1.84151 3.7107,3.27877 4.6384,3.72793 0.9276,0.44913 2.7408,2.8296 1.7288,3.41349 m -8.9374,-12.89033 c 0,0 2.1908,-0.09 4.0039,-1.25773 1.8132,-1.16777 4.5962,-4.89569 6.4094,-3.18893 1.8133,1.70675 4.7009,3.95839 7.6424,4.04526 m 1.8666,16.93654 c 0,0 2.6352,0.84663 6.5567,0.98138 3.9214,0.13474 15.3486,3.77282 16.698,5.79396 0,0 -7.8142,-0.96736 -10.2952,-1.01822 m -50.5766,-0.4526 c 0,0 6.1813,-3.15536 8.9221,-3.24519 2.7408,-0.0898 8.6871,0.12818 8.6655,-2.15854 m -16.0208,8.29644 c -4.8032,0.89253 -6.3911,3.92295 -6.3911,3.92295 0,0 0.459,-5.6525 4.6992,-6.53171 m 1.4802,6.67605 c -4.235,0.67802 -5.9264,3.26916 -5.9264,3.26916 0,0 2.1084,-6.96177 7.4214,-7.63547 5.3131,-0.67371 6.6624,-1.66183 8.0117,-1.84149 1.3494,-0.17965 6.8872,-0.33524 6.8485,-1.47944 0,0 -0.397,1.16503 3.5668,1.29979 3.9636,0.13473 6.5358,-0.35933 7.6743,0.17965 1.1385,0.53897 4.9758,0.35932 5.7769,0.22457 0.8012,-0.13474 3.2469,-2.73978 4.5119,-1.43728 1.265,1.30254 10.4152,0.62882 11.9332,0.98814 1.518,0.35932 7.0419,0.85337 9.4454,6.60243 0,0 -2.7792,-3.09002 -8.6634,-2.78016 m -56.358,10.46052 c 0,0 0.7169,-7.09647 6.4515,-7.99476 5.7347,-0.8983 5.8191,-0.76355 8.1382,-1.39237 2.3193,-0.62879 3.9637,-0.53895 5.1022,-0.44913 1.1385,0.0899 2.6441,-0.82355 2.6473,-0.76801 0,0.0556 0.8525,0.99258 2.244,1.03749 1.3915,0.0449 7.6323,-1.03303 8.3913,-1.03303 0.7591,0 5.8612,1.16778 7.042,0.85338 1.1806,-0.31441 3.795,-0.58389 5.8612,-1.03303 2.0661,-0.44916 16.7402,-1.70676 18.8906,7.27613 0,0 -2.2233,-1.65766 -6.9476,-2.20044 m 1.0751,8.70256 c 0,0 4.6075,-0.21408 6.2099,3.28925 0,0 -1.395,-7.97757 -4.4841,-8.37287 m -55.3538,7.96922 c -2.3495,-0.0949 -4.5088,3.45784 -4.5088,3.45784 0,0 -0.1232,-8.1584 5.4731,-9.04766 m -0.3581,9.6718 c -2.4385,0.0234 -5.2836,4.09188 -5.2836,4.09188 0,0 1.4336,-8.21935 4.6383,-8.17444 3.2046,0.0449 6.4093,0.58389 9.4032,-0.31441 2.9938,-0.89828 6.5781,-0.58389 6.9575,-0.80845 0.3795,-0.22457 1.3073,-2.02115 4.0903,-0.94322 2.783,1.07796 6.7466,-0.0449 7.8009,0 1.0541,0.0449 1.8975,0.35933 3.1203,0.40424 1.2229,0.0449 5.1659,-1.25828 5.1659,-1.25828 0,0 9.5925,-0.44847 11.0684,-0.13407 1.4758,0.31441 12.0596,-2.4703 12.903,8.9829 0,0 -0.792,-2.99826 -4.8965,-2.8063 m -55.1218,5.41736 c -2.4604,0.18413 -4.708,3.31765 -4.708,3.31765 0,0 1.1808,-7.45579 4.8071,-7.7702 3.6264,-0.31441 6.1986,0.76355 9.1081,0 2.9095,-0.76354 8.6329,-1.75825 8.6329,-1.75825 0,0 1.8667,0.27607 4.1436,0.32099 2.2771,0.0449 4.7227,-0.8983 5.4817,-0.71864 0.7591,0.17966 5.4818,0.85338 6.4095,0.44915 0.9276,-0.40424 2.0412,-0.94561 2.0412,-0.94561 0,0 2.808,1.17018 6.0548,1.30493 3.2469,0.13473 6.5781,1.12285 7.8431,0.89827 1.2649,-0.22455 9.1924,-3.72789 9.7405,7.41091 0,0 -1.2508,-3.84305 -6.5076,-3.77974 m -17.2986,-1.65072 c 0,0 7.6984,1.97202 10.4394,1.8822 2.7408,-0.0898 11.5957,-2.8296 12.6078,7.05159 0,0 -1.1431,-1.84217 -3.4872,-2.31803 m -52.8106,0.45024 c -3.6735,-1.95763 -6.9105,2.99064 -6.9105,2.99064 0,0 1.0965,-7.32105 5.6082,-7.32105 4.5119,0 8.56,0.0898 10.7948,-0.71864 2.2349,-0.80845 6.0015,-2.19019 6.0105,-1.99533 0.012,0.19484 3.6878,1.77075 5.6275,1.32162 1.9397,-0.44915 3.1626,-1.12286 4.4698,-0.71863 1.3072,0.40422 4.652,1.09068 7.6391,-0.44279 m -40.1077,12.52478 c 0,0 1.771,-5.74905 6.0299,-5.65922 4.2588,0.0898 8.3912,0.26948 11.8911,-0.40424 3.4997,-0.67371 3.7814,-2.52874 4.6526,-2.09528 0.8712,0.43345 5.4252,2.31986 8.4191,2.36477 2.9939,0.0449 8.8197,-1.97885 8.8558,-2.55708 0,0 2.445,0.80542 4.3847,1.29949 1.9397,0.49404 5.7768,0.89828 7.8009,0.85337 2.0239,-0.0449 6.0719,-0.53898 6.578,-0.35933 0.506,0.17966 4.554,1.61694 3.9215,5.47957 0,0 -2.1015,-2.12891 -5.6094,-2.0926 m -56.9242,3.17055 c 0,0 1.4402,-2.0834 5.8401,-2.0493 m 3.2006,3.49666 c -4.3262,-0.6187 -7.2697,3.04409 -7.2697,3.04409 0,0 0.8855,-7.00667 5.1443,-6.60243 4.259,0.40423 10.9635,-0.49406 12.8189,-0.6288 1.8552,-0.13475 1.7025,-0.58209 3.0228,-0.96476 1.3204,-0.38268 4.7182,1.7471 7.9317,1.71525 3.2136,-0.0318 7.9342,-1.008 8.905,-2.31652 0,0 1.983,1.16179 3.9226,1.34145 1.9397,0.17966 12.1863,-0.31439 13.2826,-0.22458 1.0964,0.0898 4.6805,2.56014 5.1022,5.97363 0,0 -3.6465,-1.75744 -7.616,-2.32191 m -42.3712,5.29738 c -6.1299,0.56281 -9.426,4.21086 -9.426,4.21086 0,0 1.1807,-8.12953 5.5239,-8.44392 4.3431,-0.31441 10.3253,-1.05811 12.6078,-1.2576 2.2826,-0.19952 1.2044,-0.2834 2.2889,-0.0294 1.0845,0.25398 2.0965,1.15227 3.6988,1.15227 1.6024,0 3.7528,-0.53898 5.524,-0.58389 1.771,-0.045 2.5487,0.21845 4.8492,0 2.3004,-0.21846 2.3611,-1.16165 2.3611,-1.16165 0,0 7.2951,0.21845 8.8131,0.26336 1.518,0.0449 12.9874,-1.2127 12.6078,10.2405 0,0 -1.1578,-2.76786 -6.0839,-4.14909 m -56.0279,-30.21052 c 0,0 2.024,-3.59316 5.1865,-3.81774 3.1625,-0.22456 5.5239,-0.44913 7.2527,-0.9432 1.7288,-0.49406 6.8311,-0.98812 7.7165,-0.9432 0.8856,0.0449 2.5035,-9e-4 2.5035,-9e-4 0,0 1.629,0.27082 3.9481,-0.35799 2.3191,-0.6288 5.5238,-0.89829 6.9576,-0.85337 1.4337,0.0449 4.7227,1.43726 5.566,1.48218 0.8434,0.0449 2.8464,0.0505 2.8464,0.0505 0,0 10.9001,-1.75729 16.0022,-0.2751 5.1022,1.48218 6.072,2.1559 7.1684,6.55751 0,0 -4.1745,-3.23389 -5.7346,-3.41355 -1.5603,-0.17965 -5.4396,0.53897 -6.4938,0.49407 -1.0541,-0.0449 -5.3552,-0.44916 -7.1262,-0.31441 -1.771,0.13475 -3.9105,0.99326 -3.9105,0.99326 0,0 -1.9085,0.89315 -3.2157,0.75841 -1.3071,-0.13475 -4.4696,-1.61692 -5.6083,-1.39236 -1.1385,0.22457 -4.807,1.12287 -6.578,1.25761 -1.7711,0.13475 -3.4727,-0.48612 -3.4727,-0.48612 0,0 -3.7378,-0.86132 -7.3641,-0.0978 -3.6264,0.76356 -10.4575,1.75167 -10.4575,1.75167 0,0 -4.2589,2.82961 -4.8913,4.6262 0,0 0.9698,-7.23123 3.3312,-8.48884 m 18.3729,-16.25881 c 0,0 0.7707,2.11075 4.8188,2.29039 4.048,0.17966 11.596,-0.13472 11.596,-0.13472 0,0 1.1022,0.28226 3.6082,-2.55375 m -30.2051,54.89726 c -4.9448,1.2284 -7.1789,3.97924 -7.1789,3.97924 0,0 -0.2951,-5.65923 4.9758,-7.63547 5.2708,-1.97623 5.7347,-1.48216 7.6743,-1.52708 1.9397,-0.0449 7.1123,-1.2221 7.1123,-1.2221 0,0 5.9172,0.72803 7.098,0.68313 1.1806,-0.045 2.8253,-0.44917 3.3734,-0.44917 0.5482,0 5.5206,-0.193 5.5405,-0.50029 0.02,-0.30726 12.2117,0.32065 14.7417,1.62317 2.5301,1.30252 6.0299,2.33556 5.9456,8.75832 0,0 -2.0119,-2.62063 -5.7897,-4.06958 m -43.4948,4.73051 c -4.3767,2.72701 -4.9423,5.22287 -4.9423,5.22287 0,0 -1.1806,-7.50072 3.9216,-9.25239 5.1022,-1.75166 6.325,-1.48217 8.5177,-2.02115 2.1928,-0.53898 5.3095,-0.81139 5.3339,-0.61686 0.025,0.1945 7.1475,0.12282 7.6113,0.34738 0.4639,0.22457 1.4338,-0.22458 1.9399,-0.22458 0.5059,0 5.964,-0.67549 5.964,-0.67549 0,0 3.4391,0.18144 4.915,0.3611 1.4758,0.17967 15.8547,-0.71863 14.3788,11.4532 0,0 -1.2916,-4.31721 -5.1789,-5.31983 m -46.0772,11.4371 c 0,0 -1.9163,-9.39604 4.8303,-11.14771 6.7468,-1.75165 9.6365,-1.96922 10.8791,-2.11097 1.2425,-0.14175 1.4337,-0.13475 3.795,-0.17965 2.3614,-0.0449 4.0058,-0.13474 4.7649,0.22456 0.7589,0.35931 2.0662,-0.31441 2.8674,-0.31441 0.8012,0 4.5461,-0.22194 4.5461,-0.22194 0,0 3.5499,-0.27211 5.9957,0.31179 2.4456,0.58387 7.3792,1.57199 7.8851,1.79657 0.5061,0.22457 5.6925,1.66184 4.5119,9.83626 0,0 0.04,-4.84022 -5.4829,-4.75567 m -44.6115,6.73191 c 0,0 0.3747,-4.87894 4.5255,-5.83126 m 0.8411,3.54949 c -4.1714,0.90017 -3.975,5.60545 -3.975,5.60545 0,0 -1.6445,-8.30918 4.0902,-9.43205 5.7347,-1.12285 7.337,-1.84148 9.0237,-2.24572 1.6867,-0.40422 3.0415,-0.77063 3.0415,-0.77063 0,0 4.8015,-0.30732 6.3195,-0.44206 1.5181,-0.13475 5.2541,-0.50659 6.4095,-0.44913 1.1553,0.0575 2.783,-0.045 5.1865,0.9432 2.4036,0.98811 4.7649,1.8864 7.337,2.11098 2.5722,0.22456 6.4094,0.40423 5.7769,8.98289 0,0 -0.6825,-4.38283 -5.872,-5.39364 m -35.9228,4.07384 c -3.5917,-0.73591 -3.7034,5.3621 -3.7034,5.3621 0,0 -1.4337,-7.36597 2.1506,-8.30917 3.5842,-0.9432 5.9033,-1.12288 7.084,-1.48218 1.1806,-0.35931 5.6798,-2.02523 5.6942,-1.91858 0.014,0.10667 4.974,0.66097 6.1969,0.61606 1.2229,-0.0449 6.966,-1.1858 6.9708,-1.25404 0,-0.0682 6.5648,2.15232 8.4623,2.37689 1.8975,0.22458 8.1804,0.0898 7.6322,10.10576 0,0 -0.6557,-4.27142 -4.5584,-5.49741 m -31.679,2.13697 c -7.988,1.08428 -6.1826,6.86377 -6.1826,6.86377 0,0 -2.0661,-7.81512 1.2228,-8.80324 3.2891,-0.98811 5.9456,-0.71863 7.1684,-1.12287 1.2229,-0.40422 5.2415,-1.90225 5.2415,-1.90225 0,0 5.3424,0.10567 5.9328,-0.029 0.5903,-0.13474 6.4775,-0.2042 6.479,-0.22511 0,-0.0209 5.1592,1.70729 7.0567,1.79712 1.8974,0.0898 9.4032,0.49406 7.8852,11.04897 0,0 -0.2204,-5.78429 -4.4908,-7.39864 m -2.5154,2.84326 c 0,0 4.2653,0.78257 5.2351,7.29515 m -13.3643,-12.98367 c 0,0 5.69,0.85677 7.2924,1.53049 1.6022,0.67371 7.0418,0.44913 6.0719,11.45318 m -31.8403,-6.64411 c 0,0 -6.11,0.26578 -5.8148,7.90124 0,0 -0.9698,-8.21935 1.0543,-9.70152 2.0239,-1.48218 6.831,-3.27876 8.0116,-3.77282 1.1807,-0.49405 3.3242,-0.80899 3.3242,-0.80899 0,0 4.6454,1.57254 5.6152,1.52761 0.9699,-0.0449 6.2701,-1.28186 6.2712,-1.29627 m -16.792,9.46396 c 0,0 -7.358,2.52196 -5.2496,8.63034 0,0 -3.7529,-5.29992 1.0963,-10.77948 0,0 8.2975,-3.98863 9.5672,-3.94809 1.2698,0.0406 4.643,1.20831 5.7393,1.20831 1.0966,0 5.3589,-0.98644 5.3588,-0.98395 -3e-4,0.002 7.9661,0.84921 9.5684,2.69071 1.6024,1.84149 3.0361,4.89566 1.7711,10.15067 0,0 0.3644,-5.52606 -3.8611,-7.19207 m -8.8701,5.16552 c 0,0 2.1661,0.0827 2.9063,2.47568 m -10.87,-2.71071 c 0,0 -2.9609,2.21666 -2.9187,3.51918 m 2.6222,-5.07694 c 0,0 -6.2631,2.05922 -6.1714,5.85872 m 14.8765,-6.02282 c 0,0 5.2357,1.55038 7.1113,4.25864 m -16.1286,-5.90889 c 0,0 3.9307,0.28885 4.6897,0.24394 0.7591,-0.0449 4.5969,-0.23683 4.5969,-0.23683 m -15.5622,3.44584 c -3.7445,2.3133 -1.3474,7.30097 -1.3474,7.30097 0,0 -4.3432,-6.37785 -2.0662,-9.38711 2.2771,-3.00928 7.7137,-5.05012 9.0855,-5.19748 l 10.2751,0.0864 c 0,0 8.9757,0.48491 9.5238,4.75179 0.5482,4.26689 -1.265,7.90494 -1.265,7.90494 0,0 1.1524,-4.10411 -0.4147,-6.02699 m -17.5143,-2.87773 c 0,0 -9.6061,3.73955 -7.2026,6.38951 2.4036,2.64996 6.5781,4.89568 12.2285,4.44653 5.6504,-0.44914 13.9151,-5.97362 12.7344,-7.68035 -1.1806,-1.70677 -8.4637,-3.2326 -8.4905,-3.03734 m -15.9229,-84.76893 c 0,0 -0.086,8.44251 0.842,19.5813 0.9278,11.13881 1.6867,35.12314 1.6867,35.12314 0,0 4.0481,32.69775 5.2288,35.21297 1.1806,2.5152 2.783,3.5033 4.1324,3.41347 1.3493,-0.0898 3.036,-2.33555 3.9637,-8.08459 0.9277,-5.74906 3.7107,-51.472 3.7107,-51.472 0,0 0.9296,-26.73734 0.4216,-31.35032 -0.5079,-4.61297 -0.5079,-4.61297 -0.5079,-4.61297 m -4.2991,1.73845 c 0,0 4.3011,0.2695 4.3854,-0.80846 0.085,-1.07794 -1.265,-5.65923 -1.4337,-7.00666 -0.1687,-1.34743 0.1687,-0.71863 0.3373,-3.05419 0.1687,-2.33555 -2.6143,-10.42015 -2.783,-11.94723 -0.1687,-1.52712 -11.2347,-2.04459 -13.7465,0.62878 -2.5118,2.67337 -2.024,22.63691 -2.024,22.63691 l 5.3973,0.0898 m 10.8958,-21.19878 c 0,0 3.3568,5.38888 7.9107,7.99392 0,0 5.7348,2.60504 4.3855,7.00667 -1.3493,4.4016 -3.2114,6.89245 -3.2114,6.89245 m -32.2089,-0.87391 c 0,0 -5.313,-3.95248 -2.4458,-7.18633 2.8675,-3.23384 9.524,-9.5803 10.1144,-11.91585 m 29.1058,-2.55648 c 0,0 -1.7758,6.2979 -5.7396,8.63345 m -35.2257,-5.9707 c 0,0 0.5075,4.13637 6.2422,6.92105 m -12.0027,16.65613 c 0,0 -9.3611,1.61691 -7.5057,-3.95248 1.8554,-5.56939 6.1564,-15.09126 12.4813,-19.13357 6.3251,-4.0423 15.3489,-7.7253 23.6979,-7.27614 8.3491,0.44914 17.9632,1.61692 24.6255,9.52187 6.6623,7.90495 9.7827,17.42681 8.349,18.68442 -1.4337,1.25761 -6.9997,1.07796 -6.9997,1.07796 m -44.6969,-3.50333 c 0,0 -7.5057,3.05417 -9.9514,4.58127 -2.4457,1.52709 -0.1687,2.87453 -0.759,4.22196 -0.5903,1.34743 -5.2287,-0.35932 -8.1804,0.0898 -2.9517,0.44915 -3.9636,8.17444 -3.9636,8.17444 -1.3495,11.31845 1.4335,32.42826 1.4335,32.42826 0,0 -6.4093,-24.25382 -5.566,-38.53663 0.8434,-14.28281 11.8911,-28.47578 17.3728,-32.69774 5.4817,-4.22197 14.5055,-9.34222 28.0832,-9.6117 13.5778,-0.26949 24.0352,6.91682 30.1915,13.38451 6.1564,6.46768 10.9634,16.61836 11.7224,27.21818 0.759,10.59982 -1.3493,31.17066 -3.542,39.79423 0,0 1.9396,-21.82845 -1.2651,-36.20108 0,0 -1.3492,-6.01853 -3.7949,-7.00666 0,0 -5.5661,-0.53897 -6.6624,-0.0898 -1.0963,0.44914 0.085,-1.25762 -0.4217,-2.24573 -0.5059,-0.98813 -6.9153,-4.40162 -12.5657,-2.60504"
       inkscape:connector-curvature="0" />
    <text
       xml:space="preserve"
       style="font-style:normal;font-weight:normal;font-size:60px;line-height:125%;font-family:sans-serif;text-align:center;letter-spacing:0px;word-spacing:0px;text-anchor:middle;fill:#000000;fill-opacity:1;stroke:none;stroke-width:1px;stroke-linecap:butt;stroke-linejoin:miter;stroke-opacity:1"
       x="393.52121"
       y="892.3623"
       id="text4228-3-1"
       sodipodi:linespacing="125%"><tspan
         sodipodi:role="line"
         id="tspan4230-6-2"
         x="393.52121"
         y="892.3623">Probably not an</tspan><tspan
         sodipodi:role="line"
         x="393.52121"
         y="967.3623"
         id="tspan4232-7-7">action movie</tspan></text>
    <g
       id="g1835"
       transform="matrix(0.23287358,0,0,0.22759046,642.85716,865.62506)">
      <g
         id="g1837">
        <path
           inkscape:connector-curvature="0"
           d="m 219.744,443.88 c 121.359,0 219.744,-99.37 219.744,-221.94 C 439.488,99.368 341.103,0 219.744,0 98.387,0 0,99.368 0,221.94 0,344.51 98.387,443.88 219.744,443.88 Z"
           id="path1839"
           style="fill:#000000;stroke:none" />
        <path
           inkscape:connector-curvature="0"
           d="M 219.744,221.94"
           id="path1841"
           style="fill:#000000;stroke:none" />
      </g>
      <g
         id="g1843">
        <path
           inkscape:connector-curvature="0"
           d="m 219.744,392.714 c 93.384,0 169.086,-76.459 169.086,-170.774 0,-94.317 -75.702,-170.774 -169.086,-170.774 -93.382,0 -169.085,76.457 -169.085,170.774 0,94.315 75.703,170.774 169.085,170.774 z"
           id="path1845"
           style="fill:#ffffff;stroke:none" />
        <path
           inkscape:connector-curvature="0"
           d="M 219.744,221.94"
           id="path1847"
           style="fill:#ffffff;stroke:none" />
      </g>
      <g
         id="g1849">
        <path
           inkscape:connector-curvature="0"
           d="m 196.963,300.274 49.531,-0.102 0,-38.482 c 0,-10.438 4.866,-20.3 17.886,-28.841 13.019,-8.537 49.364,-25.861 49.364,-71.409 0,-45.55 -38.167,-76.858 -70.25,-83.5 -32.078,-6.642 -66.835,-2.272 -91.5,24.75 -22.087,24.197 -26.741,43.337 -26.741,85.565 l 49.491,0 0,-9.815 c 0,-22.501 2.603,-46.254 34.75,-52.75 17.546,-3.546 33.994,1.958 43.75,11.5 11.16,10.912 11.25,35.5 -6.533,47.743 l -27.896,18.979 c -16.272,10.438 -21.852,22.059 -21.852,39.139 l 0,57.223 z"
           id="path1851"
           style="fill:#000000;stroke:none" />
        <g
           id="g1853">
          <path
             inkscape:connector-curvature="0"
             d="m 196.638,370.692 0,-51.005 50.212,0 0,51.005 -50.212,0 z"
             id="path1855"
             style="fill:#000000;stroke:none" />
          <path
             inkscape:connector-curvature="0"
             d="M 221.744,345.19"
             id="path1857"
             style="fill:#000000;stroke:none" />
        </g>
      </g>
    </g>
    <rect
       style="fill:none;stroke:#ff0000;stroke-width:5.51217175;stroke-miterlimit:4;stroke-dasharray:none;stroke-opacity:1"
       id="rect5290"
       width="606.20209"
       height="200.48784"
       x="-1725.9583"
       y="812.11829" />
    <rect
       style="fill:none;stroke:#0000ff;stroke-width:5.38303852;stroke-miterlimit:4;stroke-dasharray:none;stroke-opacity:1"
       id="rect5290-0"
       width="577.75977"
       height="200.61697"
       x="-1080.3086"
       y="814.91083" />
    <rect
       style="fill:none;stroke:#0000ff;stroke-width:5.23718166;stroke-miterlimit:4;stroke-dasharray:none;stroke-opacity:1"
       id="rect5290-0-9"
       width="546.47705"
       height="200.76283"
       x="-437.52438"
       y="814.83789" />
    <rect
       style="fill:none;stroke:#ff0000;stroke-width:5.58816767;stroke-miterlimit:4;stroke-dasharray:none;stroke-opacity:1"
       id="rect5290-3"
       width="623.26892"
       height="200.41185"
       x="148.36549"
       y="815.01343" />
    <rect
       style="fill:none;stroke:#000000;stroke-width:5.29058361;stroke-miterlimit:4;stroke-dasharray:none;stroke-opacity:1"
       id="rect5290-6"
       width="557.85211"
       height="200.70932"
       x="-1377.4976"
       y="412.00757" />
    <rect
       style="fill:none;stroke:#000000;stroke-width:5.77349377;stroke-miterlimit:4;stroke-dasharray:none;stroke-opacity:1"
       id="rect5290-6-0"
       width="665.94061"
       height="200.22641"
       x="-177.2561"
       y="417.96332" />
    <flowRoot
       transform="translate(125.18942,870.11402)"
       xml:space="preserve"
       id="flowRoot4149-3-6"
       style="font-style:normal;font-weight:normal;font-size:40px;line-height:125%;font-family:sans-serif;letter-spacing:0px;word-spacing:0px;fill:#000000;fill-opacity:1;stroke:none;stroke-width:1px;stroke-linecap:butt;stroke-linejoin:miter;stroke-opacity:1"><flowRegion
         id="flowRegion4151-6-2"><rect
           id="rect4153-7-6"
           width="148.57143"
           height="80"
           x="-228.57143"
           y="-213.35208" /></flowRegion><flowPara
         id="flowPara4155-5-1"
         style="font-size:60px">Yes</flowPara></flowRoot>    <text
       xml:space="preserve"
       style="font-style:normal;font-weight:normal;font-size:60px;line-height:125%;font-family:sans-serif;letter-spacing:0px;word-spacing:0px;fill:#000000;fill-opacity:1;stroke:none;stroke-width:1px;stroke-linecap:butt;stroke-linejoin:miter;stroke-opacity:1"
       x="273.76096"
       y="719.61908"
       id="text4157-3-8"
       sodipodi:linespacing="125%"><tspan
         sodipodi:role="line"
         id="tspan4159-5-7"
         x="273.76096"
         y="719.61908">No</tspan></text>
    <rect
       style="fill:none;stroke:#000000;stroke-width:6.20641232;stroke-miterlimit:4;stroke-dasharray:none;stroke-opacity:1"
       id="rect5290-6-0-9"
       width="771.22198"
       height="199.79349"
       x="-885.61115"
       y="12.465493" />
    <path
       style="fill:none;fill-rule:evenodd;stroke:#000000;stroke-width:6;stroke-linecap:butt;stroke-linejoin:miter;stroke-miterlimit:4;stroke-dasharray:none;stroke-opacity:1"
       d="m -799.9998,212.36218 -22.98526,57.46316 m -24.59199,61.47998 -32.42275,81.05686"
       id="path5462"
       inkscape:connector-curvature="0"
       sodipodi:nodetypes="cccc" />
    <path
       style="fill:none;fill-rule:evenodd;stroke:#000000;stroke-width:6;stroke-linecap:butt;stroke-linejoin:miter;stroke-miterlimit:4;stroke-dasharray:none;stroke-opacity:1"
       d="m -199.9998,212.36218 23.29603,58.24008 m 25.70664,64.2666 30.99733,77.49332"
       id="path5464"
       inkscape:connector-curvature="0"
       sodipodi:nodetypes="cccc" />
    <path
       style="fill:none;fill-rule:evenodd;stroke:#000000;stroke-width:6;stroke-linecap:butt;stroke-linejoin:miter;stroke-miterlimit:4;stroke-dasharray:none;stroke-opacity:1"
       d="m -1239.9998,612.36221 -22.9852,57.46316 m -24.592,61.47998 -32.4228,81.05686"
       id="path5462-2"
       inkscape:connector-curvature="0"
       sodipodi:nodetypes="cccc" />
    <path
       style="fill:none;fill-rule:evenodd;stroke:#000000;stroke-width:6;stroke-linecap:butt;stroke-linejoin:miter;stroke-miterlimit:4;stroke-dasharray:none;stroke-opacity:1"
       d="M -9.9997696,616.64792 -32.98497,674.11108 m -24.592,61.47998 -32.4228,81.05686"
       id="path5462-0"
       inkscape:connector-curvature="0"
       sodipodi:nodetypes="cccc" />
    <path
       style="fill:none;fill-rule:evenodd;stroke:#000000;stroke-width:6;stroke-linecap:butt;stroke-linejoin:miter;stroke-miterlimit:4;stroke-dasharray:none;stroke-opacity:1"
       d="m -962.85691,612.36222 23.2961,58.24008 m 25.7066,64.2666 30.9973,77.49332"
       id="path5464-2"
       inkscape:connector-curvature="0"
       sodipodi:nodetypes="cccc" />
    <path
       style="fill:none;fill-rule:evenodd;stroke:#000000;stroke-width:6;stroke-linecap:butt;stroke-linejoin:miter;stroke-miterlimit:4;stroke-dasharray:none;stroke-opacity:1"
       d="m 271.4288,616.64794 23.2961,58.24008 m 25.7066,64.2666 30.9973,77.49332"
       id="path5464-3"
       inkscape:connector-curvature="0"
       sodipodi:nodetypes="cccc" />
  </g>
</svg>
